<?xml version="1.0" encoding="UTF-8"?>
<svg id="Canvas" xmlns="http://www.w3.org/2000/svg" version="1.1" viewBox="0 0 500 500">
  <!-- Generator: Adobe Illustrator 29.1.0, SVG Export Plug-In . SVG Version: 2.1.0 Build 142)  -->
  <defs>
    <style>
      .st0 {
        fill: #43cfb5;
      }

      .st1 {
        fill: #003643;
      }
    </style>
  </defs>
  <g id="Logo">
    <circle class="st0" cx="87.87" cy="276.53" r="26.12"/>
    <path class="st1" d="M191.21,213.21l-5.43-7.36h-3.49v7.36h-3.06v-19.06h6.96c3.87,0,6.47,2.37,6.47,5.83.07,2.39-1.41,4.56-3.66,5.38l5.72,7.85h-3.5ZM182.29,203.13h3.84c2.16,0,3.38-1.3,3.38-3.12s-1.21-3.15-3.38-3.15h-3.84v6.27Z"/>
    <path class="st1" d="M195.19,206.11c-.02-4.06,3.25-7.37,7.31-7.39.05,0,.11,0,.16,0,4.22,0,7.54,3.25,7.54,7.39s-3.36,7.51-7.51,7.51-7.51-3.36-7.51-7.51h0ZM207.09,206.13c0-2.66-1.9-4.65-4.39-4.65s-4.42,1.99-4.42,4.65,1.88,4.59,4.39,4.59,4.42-1.99,4.42-4.59h0Z"/>
    <path class="st1" d="M225.74,199.02l-6.9,15.79c-1.18,2.71-2.8,3.9-5.2,3.9-.79,0-1.57-.1-2.34-.29v-2.57c.65.06,1.21.11,1.67.11,1.3,0,2.34-.37,3.09-2.08l.58-1.33-5.66-13.54h3.25l4.07,10.31,4.2-10.31h3.23Z"/>
    <path class="st1" d="M238.44,204.63v8.57h-2.83v-1.59c-1.01,1.21-2.57,1.9-4.55,1.9-2.97,0-4.94-1.64-4.94-4.1s2.05-4.04,5.23-4.04h4.01v-.93c0-1.95-1.1-3.03-3.03-3.03-1.64,0-2.8.78-3.93,2.11l-1.76-1.79c1.35-1.97,3.61-3.11,5.99-3.04,3.41,0,5.8,2.01,5.8,5.93ZM235.38,207.84v-.26h-3.64c-1.62,0-2.51.58-2.51,1.73,0,1.24,1.1,1.88,2.48,1.88,1.99,0,3.67-1.41,3.67-3.35h0Z"/>
    <path class="st1" d="M241.93,191.55h3.03v21.65h-3.03v-21.65Z"/>
    <path class="st1" d="M255.04,203.68c0-5.57,4.45-9.85,10.02-9.85,3.57,0,6.55,1.73,8.17,4.39l-2.31,1.71c-1.33-2.05-3.29-3.29-5.85-3.29-3.93,0-6.87,2.97-6.87,7.05s2.96,7.04,6.89,7.04c2.54,0,4.5-1.24,5.85-3.29l2.31,1.71c-1.59,2.66-4.59,4.39-8.17,4.39-5.59,0-10.04-4.24-10.04-9.84Z"/>
    <path class="st1" d="M274.79,206.11c-.03-4.06,3.24-7.38,7.3-7.41.06,0,.12,0,.17,0,4.22,0,7.54,3.25,7.54,7.39s-3.36,7.51-7.51,7.51-7.51-3.36-7.51-7.51h0ZM286.68,206.13c0-2.66-1.91-4.65-4.39-4.65s-4.42,1.99-4.42,4.65,1.87,4.59,4.38,4.59,4.42-1.99,4.42-4.59h0Z"/>
    <path class="st1" d="M292.54,191.55h3.05v21.65h-3.03l-.02-21.65Z"/>
    <path class="st1" d="M299.23,191.55h3.03v21.65h-3.03v-21.65Z"/>
    <path class="st1" d="M318.69,207.12h-10.56c.4,2.34,2.19,3.72,4.62,3.72,1.65,0,2.94-.65,4.13-1.67l1.46,2.08c-1.52,1.47-3.55,2.29-5.66,2.27-4.39,0-7.62-3.2-7.62-7.39-.08-4.03,3.13-7.35,7.15-7.43.05,0,.11,0,.16,0,3.78,0,6.55,2.77,6.55,6.5,0,.65-.09,1.29-.23,1.92ZM308.18,204.75h7.71c-.06-2.22-1.71-3.46-3.64-3.46-1.99.02-3.61,1.36-4.07,3.46h0Z"/>
    <path class="st1" d="M335.58,199.02v12.7c0,4.55-2.89,6.99-7.1,6.99-2.54.02-4.98-.94-6.82-2.68l1.67-2.11c1.39,1.13,2.89,2.02,4.97,2.02,2.51,0,4.24-1.33,4.24-4.04v-1.01c-1.1,1.3-2.83,2.02-4.79,2.02-3.95,0-6.9-2.92-6.9-7.1s2.98-7.11,6.91-7.11c2.17,0,3.99.87,5.03,2.34v-2.01h2.79ZM332.58,205.78c0-3.09-2.14-4.36-4.27-4.36-2.42,0-4.33,1.73-4.33,4.39s1.9,4.45,4.33,4.45c2.17,0,4.27-1.38,4.27-4.47h0Z"/>
    <path class="st1" d="M352.01,207.12h-10.57c.4,2.34,2.19,3.72,4.62,3.72,1.64,0,2.94-.65,4.13-1.67l1.44,2.08c-1.52,1.47-3.55,2.29-5.66,2.27-4.39,0-7.62-3.2-7.62-7.39-.08-4.03,3.13-7.35,7.15-7.43.06,0,.12,0,.18,0,3.78,0,6.55,2.77,6.55,6.5,0,.65-.09,1.29-.23,1.92ZM341.5,204.75h7.71c-.06-2.22-1.7-3.46-3.64-3.46-1.99.02-3.61,1.36-4.07,3.46h0Z"/>
    <path class="st1" d="M361.44,206.11c-.02-4.06,3.25-7.37,7.31-7.39.05,0,.11,0,.16,0,4.22,0,7.54,3.25,7.54,7.39,0,4.15-3.37,7.5-7.52,7.5-4.14,0-7.49-3.36-7.5-7.5h0ZM373.34,206.13c0-2.66-1.9-4.65-4.39-4.65s-4.42,1.99-4.42,4.65,1.88,4.59,4.39,4.59,4.42-1.99,4.42-4.59h0Z"/>
    <path class="st1" d="M382.75,196.42v2.6h3.35v2.63h-3.35v11.55h-3.03v-11.54h-2.02v-2.64h2.02v-2.86c0-3.44,2.05-4.94,5.05-4.94.66-.01,1.32.07,1.95.26v2.57c-.4-.06-.81-.08-1.21-.09-1.72,0-2.76.58-2.76,2.45Z"/>
    <path class="st1" d="M178.82,244.66c0-8.48,6.82-14.95,15.29-14.95s15.38,6.47,15.38,14.95-6.9,14.95-15.38,14.95-15.29-6.47-15.29-14.95ZM203.41,244.66c0-5.55-3.98-9.48-9.26-9.48s-9.26,3.93-9.26,9.48,3.9,9.48,9.26,9.48,9.26-3.89,9.26-9.48Z"/>
    <path class="st1" d="M211.76,248.24c0-6.38,5.11-11.27,11.58-11.27,4.32,0,7.6,2.1,9.39,5.33l-4.11,3.19c-1.22-1.83-2.79-3.15-5.2-3.15-3.36,0-5.68,2.53-5.68,5.9s2.31,5.94,5.68,5.94c2.36,0,3.93-1.3,5.2-3.1l4.11,3.15c-1.79,3.23-5.11,5.37-9.39,5.37-6.47,0-11.58-4.94-11.58-11.36Z"/>
    <path class="st1" d="M234.35,248.24c0-6.38,5.11-11.27,11.58-11.27,4.33,0,7.6,2.1,9.39,5.33l-4.11,3.19c-1.22-1.83-2.79-3.15-5.2-3.15-3.36,0-5.68,2.53-5.68,5.9s2.31,5.94,5.68,5.94c2.36,0,3.93-1.3,5.2-3.1l4.11,3.15c-1.79,3.23-5.11,5.37-9.39,5.37-6.46,0-11.58-4.94-11.58-11.36Z"/>
    <path class="st1" d="M258.38,249.55v-12.1h5.9v12.59c0,2.53,1.79,4.15,4.11,4.15s4.02-1.62,4.02-4.15v-12.59h5.9v12.1c0,6.12-4.28,10.04-9.91,10.04s-10.01-3.93-10.01-10.04Z"/>
    <path class="st1" d="M305.69,248.24c0,6.5-4.37,11.36-10.49,11.36-2.66,0-4.94-.96-6.46-2.62v9.96h-5.9v-29.49h5.42v2.71c1.49-2.05,3.97-3.19,6.94-3.19,6.12,0,10.49,4.76,10.49,11.27ZM299.71,248.29c0-3.67-2.49-5.99-5.59-5.99-2.71,0-5.46,1.79-5.46,5.94s2.71,5.99,5.46,5.99c3.06,0,5.59-2.27,5.59-5.94h0Z"/>
    <path class="st1" d="M327.36,246.23v12.84h-5.42v-2.1c-1.53,1.62-3.8,2.62-6.6,2.62-4.72,0-7.47-2.79-7.47-6.46,0-3.93,3.19-6.29,8.17-6.29h5.42v-.97c0-2.36-1.35-3.8-4.02-3.8-2.31,0-3.93,1.09-5.72,2.97l-3.06-3.63c2.53-3.02,5.64-4.46,9.42-4.46,5.52.01,9.28,3.11,9.28,9.27ZM321.46,250.99v-.26h-4.63c-1.92,0-3.01.74-3.01,2.19s1.27,2.36,3.1,2.36c2.49,0,4.54-1.75,4.54-4.28h0Z"/>
    <path class="st1" d="M345.84,254.14v4.94c-1.33.34-2.69.52-4.06.52-5.33,0-8.65-2.58-8.65-8.12v-9.04h-3.41v-4.98h3.41v-5.46h5.9v5.46h6.12v4.98h-6.12v8.52c0,2.49,1.3,3.36,4.02,3.36.7,0,1.66-.09,2.79-.18Z"/>
    <path class="st1" d="M348.2,229.59c0-2.09,1.69-3.78,3.78-3.78s3.78,1.69,3.78,3.78-1.7,3.63-3.8,3.63c-2.01.06-3.7-1.52-3.76-3.54,0-.03,0-.06,0-.09ZM349.03,237.45h5.9v21.62h-5.9v-21.62Z"/>
    <path class="st1" d="M358.47,248.24c0-6.33,5.07-11.27,11.58-11.27s11.62,4.98,11.62,11.27-5.16,11.32-11.66,11.32-11.53-4.98-11.53-11.32ZM375.64,248.29c0-3.41-2.4-5.94-5.59-5.94s-5.59,2.49-5.59,5.94,2.36,5.85,5.59,5.85,5.59-2.49,5.59-5.85h0Z"/>
    <path class="st1" d="M405.04,245.66v13.41h-5.85v-12.63c0-2.49-1.62-4.2-4.02-4.2s-4.11,1.71-4.11,4.2v12.63h-5.9v-21.62h5.42v1.97c1.49-1.49,3.67-2.45,6.34-2.45,5.06,0,8.12,3.49,8.12,8.69Z"/>
    <path class="st1" d="M427.76,246.23v12.84h-5.42v-2.1c-1.53,1.62-3.8,2.62-6.6,2.62-4.72,0-7.47-2.79-7.47-6.46,0-3.93,3.19-6.29,8.17-6.29h5.42v-.97c0-2.36-1.35-3.8-4.02-3.8-2.31,0-3.93,1.09-5.72,2.97l-3.06-3.63c2.53-3.02,5.64-4.46,9.42-4.46,5.52.01,9.28,3.11,9.28,9.27ZM421.86,250.99v-.26h-4.63c-1.92,0-3.01.74-3.01,2.19s1.27,2.36,3.1,2.36c2.49,0,4.54-1.75,4.54-4.28h0Z"/>
    <path class="st1" d="M432.35,226.32h5.9v32.75h-5.9v-32.75Z"/>
    <path class="st1" d="M188.29,277.72h-9.22v-5.33h24.37v5.33h-9.25v23.51h-5.91v-23.51Z"/>
    <path class="st1" d="M225.72,287.81v13.41h-5.85v-12.58c0-2.53-1.62-4.19-4.02-4.19s-4.1,1.7-4.1,4.19v12.58h-5.89v-32.77h5.89v12.98c1.44-1.44,3.5-2.31,5.94-2.31,4.94,0,8.03,3.49,8.03,8.69Z"/>
    <path class="st1" d="M250.19,292.4h-15.16c.7,2.75,2.92,4.28,6.07,4.28,2.36,0,4.28-.83,6.03-2.18l2.45,4.02c-2.4,2.09-5.47,3.25-8.65,3.25-6.86,0-11.84-4.94-11.84-11.32-.09-6.16,4.83-11.22,10.99-11.31.11,0,.22,0,.32,0,6.07,0,10.18,4.46,10.18,10.04-.02,1.08-.15,2.16-.39,3.22ZM235.03,288.25h9.83c-.04-2.75-2.18-4.37-4.67-4.37s-4.5,1.66-5.16,4.37Z"/>
    <path class="st1" d="M267.36,279.6v5.2h-1.57c-3.41,0-5.81,1.75-5.81,5.64v10.79h-5.9v-21.63h5.43v2.58c1.43-1.82,3.63-2.87,5.94-2.84.65-.01,1.29.08,1.91.26Z"/>
    <path class="st1" d="M287.64,288.39v12.84h-5.42v-2.12c-1.53,1.62-3.8,2.62-6.6,2.62-4.72,0-7.47-2.79-7.47-6.46,0-3.93,3.19-6.29,8.17-6.29h5.42v-.97c0-2.36-1.36-3.8-4.02-3.8-2.31,0-3.93,1.09-5.72,2.97l-3.05-3.6c2.53-3.02,5.64-4.46,9.42-4.46,5.52,0,9.27,3.1,9.27,9.27ZM281.74,293.15v-.26h-4.63c-1.92,0-3.02.74-3.02,2.19s1.27,2.36,3.1,2.36c2.49,0,4.54-1.75,4.54-4.29h0Z"/>
    <path class="st1" d="M315.08,290.39c0,6.5-4.37,11.37-10.49,11.37-2.66,0-4.94-.97-6.46-2.62v9.96h-5.91v-29.51h5.42v2.71c1.49-2.05,3.97-3.19,6.94-3.19,6.12,0,10.5,4.76,10.5,11.27ZM309.1,290.43c0-3.67-2.49-5.98-5.59-5.98-2.71,0-5.46,1.79-5.46,5.94s2.71,5.99,5.46,5.99c3.05,0,5.58-2.27,5.58-5.94h0Z"/>
    <path class="st1" d="M317.78,271.74c0-2.02,1.62-3.66,3.64-3.67.04,0,.08,0,.12,0,2.04-.06,3.74,1.55,3.8,3.59,0,.03,0,.06,0,.09,0,2.05-1.71,3.62-3.8,3.62-2.01.06-3.69-1.52-3.76-3.53,0-.03,0-.06,0-.09ZM318.61,279.6h5.9v21.63h-5.9v-21.63Z"/>
    <path class="st1" d="M327.31,297.56l2.97-3.57c1.75,1.79,3.76,2.92,6.07,2.92,1.49,0,2.75-.57,2.75-1.79,0-1-.92-1.4-2.23-1.97l-2.32-.97c-3.67-1.49-5.9-3.19-5.9-6.6,0-4.15,3.37-6.46,7.95-6.46,3.15,0,5.81,1.05,7.78,3.23l-2.98,3.63c-1.3-1.28-3.03-2.01-4.85-2.05-1.4,0-2.32.48-2.32,1.53,0,.83.7,1.27,2.27,1.92l2.1.87c3.9,1.57,6.07,3.23,6.07,6.6,0,4.46-3.71,6.9-8.43,6.9-3.83,0-7.03-1.66-8.95-4.19Z"/>
    <path class="st1" d="M361.95,296.29v4.94c-1.33.34-2.69.52-4.07.52-5.33,0-8.65-2.58-8.65-8.12v-9.04h-3.41v-4.98h3.41v-5.46h5.9v5.46h6.12v4.98h-6.12v8.52c0,2.49,1.3,3.36,4.02,3.36.7,0,1.66-.09,2.79-.18Z"/>
    <path class="st1" d="M363.18,297.56l2.97-3.57c1.75,1.79,3.76,2.92,6.07,2.92,1.49,0,2.75-.57,2.75-1.79,0-1-.92-1.4-2.23-1.97l-2.32-.97c-3.67-1.49-5.9-3.19-5.9-6.6,0-4.15,3.36-6.46,7.95-6.46,3.15,0,5.81,1.05,7.78,3.23l-2.97,3.63c-1.3-1.28-3.03-2.01-4.85-2.05-1.4,0-2.31.48-2.31,1.53,0,.83.7,1.27,2.27,1.92l2.1.87c3.9,1.57,6.07,3.23,6.07,6.6,0,4.46-3.71,6.9-8.45,6.9-3.83,0-7.02-1.65-8.94-4.19Z"/>
    <path class="st1" d="M93.07,241.89l-11.31-15.55h-5.38v15.55h-13.05v-50.07h19.64c11.15,0,19.35,6.82,19.35,17.22,0,6.14-2.96,11.22-7.89,14.26l13.2,18.59h-14.57ZM76.38,214.95h6.67c3.64,0,5.99-2.35,5.99-5.91s-2.35-5.85-5.99-5.85h-6.67v11.76Z"/>
    <path class="st1" d="M134.25,190.9c10.01,0,18.36,4.93,22.91,13.43l-9.94,6.75c-3.25-5.46-7.58-8.19-13.05-8.19-7.97,0-13.65,5.61-13.65,14.03,0,4.17,1.3,7.51,3.8,10.07,2.58,2.5,5.85,3.79,9.86,3.79,5.46,0,9.78-2.73,13.05-8.19l9.94,6.75c-4.55,8.5-12.9,13.43-22.99,13.43-14.71.23-27.3-11.46-27.01-25.94-.23-14.31,12.21-26.22,27.07-25.93Z"/>
    <path class="st1" d="M130.31,263.26h-15.02v-11.76h43.08v11.76h-15.02v38.31h-13.05v-38.31Z"/>
  </g>
</svg>