<?xml version="1.0" encoding="UTF-8"?>
<svg id="Logo" xmlns="http://www.w3.org/2000/svg" viewBox="0 0 398.01 398.01">
  <defs>
    <style>
      .cls-1 {
      fill: #43cfb5;
      }

      .cls-1, .cls-2 {
      stroke-width: 0px;
      }

      .cls-2 {
      fill: #003643;
      }

      .background {
      fill: white;
      }
    </style>
  </defs>
  <circle class="background" cx="199" cy="199" r="199"/>
  <g transform="scale(0.5) translate(199, 199)">
    <circle class="cls-1" cx="107.59" cy="352.7" r="107.59"/>
    <path class="cls-2" d="M128.99,209.99l-46.56-64.05h-22.18v64.05H6.51V3.77h80.92c45.93,0,79.68,28.12,79.68,70.93,0,25.31-12.18,46.24-32.5,58.74l54.37,76.55h-59.99ZM60.25,99.07h27.5c14.99,0,24.68-9.69,24.68-24.37s-9.69-24.06-24.68-24.06h-27.5v48.43Z"/>
    <path class="cls-2" d="M298.65.02c41.24,0,75.62,20.31,94.36,55.3l-40.93,27.81c-13.44-22.5-31.25-33.75-53.74-33.75-32.81,0-56.24,23.12-56.24,57.81,0,17.18,5.31,30.93,15.63,41.55,10.62,10.31,24.06,15.62,40.62,15.62,22.5,0,40.31-11.25,53.74-33.74l40.93,27.81c-18.75,35-53.12,55.3-94.67,55.3-60.61.94-112.48-47.18-111.23-106.86C186.16,47.83,237.4-1.23,298.65.02Z"/>
    <path class="cls-2" d="M282.4,298.02h-61.86v-48.43h177.47v48.43h-61.87v157.79h-53.74v-157.79Z"/>
  </g>
</svg>