<svg id="Logo" xmlns="http://www.w3.org/2000/svg" viewBox="0 0 1158.55 363.67"><defs><style>.cls-2{fill:#003643}</style></defs><circle cx="80.37" cy="263.49" r="80.37" style="fill:#43cfb5"/><path class="cls-2" d="M553.81 228.64 537.11 206h-10.75v22.65h-9.42V170h21.41c11.91 0 19.91 7.28 19.91 17.94A17.06 17.06 0 0 1 547 204.48l17.59 24.16Zm-27.45-31h11.82c6.66 0 10.39-4 10.39-9.6s-3.73-9.68-10.39-9.68h-11.82ZM566.07 206.79a22.63 22.63 0 0 1 23-22.75c13 0 23.19 10 23.19 22.75a23.1 23.1 0 0 1-46.2 0Zm36.6.09c0-8.18-5.86-14.31-13.5-14.31-7.82 0-13.6 6.13-13.6 14.31S581.35 221 589.08 221s13.59-6.13 13.59-14.12ZM660.06 185l-21.23 48.6c-3.64 8.35-8.62 12-16 12a30.92 30.92 0 0 1-7.2-.89v-7.9c2 .18 3.73.35 5.15.35 4 0 7.2-1.15 9.51-6.39l1.78-4.09L614.66 185h10l12.53 31.72L650.11 185ZM699.15 202.26v26.38h-8.71v-4.88c-3.11 3.73-7.91 5.86-14 5.86-9.15 0-15.19-5.06-15.19-12.61s6.31-12.44 16.08-12.44h12.35v-2.85c0-6-3.37-9.32-9.33-9.32-5.06 0-8.62 2.39-12.08 6.48l-5.42-5.51a21.6 21.6 0 0 1 18.44-9.37c10.48 0 17.86 6.17 17.86 18.26Zm-9.42 9.86v-.8h-11.19c-5 0-7.73 1.78-7.73 5.33 0 3.82 3.37 5.77 7.64 5.77 6.13 0 11.28-4.35 11.28-10.3ZM709.89 162h9.33v66.63h-9.33ZM750.22 199.33c0-17.15 13.68-30.3 30.83-30.3 11 0 20.17 5.33 25.14 13.5l-7.1 5.25c-4.09-6.31-10.13-10.13-18-10.13-12.08 0-21.15 9.15-21.15 21.68s9.12 21.67 21.2 21.67c7.82 0 13.86-3.82 18-10.13l7.1 5.25c-4.88 8.17-14.12 13.5-25.14 13.5-17.2 0-30.88-13.06-30.88-30.29ZM811 206.79A22.63 22.63 0 0 1 834 184c13 0 23.19 10 23.19 22.75a23.1 23.1 0 0 1-46.2 0Zm36.61.09c0-8.18-5.87-14.31-13.51-14.31-7.82 0-13.59 6.13-13.59 14.31S826.26 221 834 221s13.59-6.13 13.59-14.12ZM865.62 162H875v66.63h-9.33ZM886.23 162h9.32v66.63h-9.32ZM946.1 209.9h-32.51c1.24 7.19 6.75 11.46 14.21 11.46 5.07 0 9.06-2 12.71-5.15l4.49 6.39a24.85 24.85 0 0 1-17.42 7c-13.5 0-23.45-9.86-23.45-22.74A22.44 22.44 0 0 1 926.65 184c11.64 0 20.17 8.53 20.17 20a27.27 27.27 0 0 1-.72 5.9Zm-32.34-7.29h23.73c-.18-6.84-5.25-10.66-11.2-10.66-6.13.05-11.1 4.18-12.53 10.66ZM998.07 185v39.09c0 14-8.88 21.5-21.85 21.5a30.18 30.18 0 0 1-21-8.26l5.15-6.49c4.27 3.47 8.89 6.22 15.28 6.22 7.73 0 13.06-4.08 13.06-12.43v-3.11c-3.37 4-8.7 6.22-14.75 6.22-12.17 0-21.23-9-21.23-21.86S961.91 184 974 184c6.67 0 12.27 2.67 15.47 7.2V185Zm-9.24 20.79c0-9.5-6.57-13.41-13.15-13.41-7.46 0-13.32 5.33-13.32 13.5s5.86 13.68 13.32 13.68c6.67.02 13.15-4.24 13.15-13.75ZM1048.62 209.9h-32.52c1.24 7.19 6.75 11.46 14.22 11.46 5.06 0 9.06-2 12.7-5.15l4.44 6.39a24.85 24.85 0 0 1-17.41 7c-13.51 0-23.46-9.86-23.46-22.74a22.44 22.44 0 0 1 22.57-22.86c11.64 0 20.17 8.53 20.17 20a28 28 0 0 1-.71 5.9Zm-32.34-7.29H1040c-.18-6.84-5.24-10.66-11.2-10.66-6.13.05-11.1 4.18-12.52 10.66ZM1077.66 206.79a22.63 22.63 0 0 1 23-22.75c13 0 23.19 10 23.19 22.75a23.1 23.1 0 0 1-46.2 0Zm36.6.09c0-8.18-5.86-14.31-13.5-14.31-7.82 0-13.59 6.13-13.59 14.31s5.77 14.12 13.5 14.12 13.59-6.13 13.59-14.12ZM1143.22 177v8h10.31v8.09h-10.31v35.53h-9.33v-35.51h-6.22V185h6.22v-8.79c0-10.58 6.31-15.2 15.55-15.2a19.59 19.59 0 0 1 6 .8v7.91a29.07 29.07 0 0 0-3.73-.27c-5.29.02-8.49 1.8-8.49 7.55ZM515.68 325.43c0-26.08 21-46 47.05-46s47.32 19.9 47.32 46-21.24 46-47.32 46-47.05-19.92-47.05-46Zm75.69 0c0-17.08-12.24-29.17-28.5-29.17-16.54 0-28.5 12.09-28.5 29.17s12 29.17 28.5 29.17c16.26 0 28.5-11.96 28.5-29.17ZM617.05 336.45c0-19.62 15.73-34.68 35.63-34.68 13.3 0 23.39 6.45 28.9 16.4L668.94 328c-3.76-5.64-8.6-9.68-16-9.68-10.35 0-17.47 7.8-17.47 18.15s7.12 18.29 17.47 18.29c7.26 0 12.1-4 16-9.55l12.64 9.68c-5.51 9.95-15.73 16.53-28.9 16.53-19.9-.02-35.63-15.21-35.63-34.97ZM686.56 336.45c0-19.62 15.73-34.68 35.62-34.68 13.31 0 23.4 6.45 28.91 16.4L738.45 328c-3.76-5.64-8.6-9.68-16-9.68-10.35 0-17.47 7.8-17.47 18.15s7.12 18.29 17.47 18.29c7.26 0 12.1-4 16-9.55l12.64 9.68c-5.51 9.95-15.73 16.53-28.91 16.53-19.89-.02-35.62-15.21-35.62-34.97ZM760.5 340.49v-37.24h18.15V342c0 7.8 5.51 12.78 12.64 12.78 6.85 0 12.36-5 12.36-12.78v-38.75h18.15v37.24c0 18.82-13.17 30.91-30.51 30.91-17.61 0-30.79-12.09-30.79-30.91ZM906.1 336.45c0 20-13.45 34.95-32.27 34.95-8.2 0-15.19-2.95-19.89-8.06V394h-18.15v-90.75h16.67v8.33c4.57-6.32 12.23-9.81 21.37-9.81 18.82 0 32.27 14.65 32.27 34.68Zm-18.42.14c0-11.3-7.66-18.42-17.21-18.42-8.33 0-16.8 5.51-16.8 18.28s8.33 18.42 16.8 18.42c9.41 0 17.21-6.99 17.21-18.28ZM972.78 330.27v39.52h-16.67v-6.45c-4.7 5-11.69 8.06-20.3 8.06-14.52 0-23-8.6-23-19.89 0-12.1 9.82-19.36 25.14-19.36h16.67v-3c0-7.26-4.16-11.69-12.37-11.69-7.12 0-12.09 3.36-17.6 9.14l-9.42-11.16c7.8-9.28 17.35-13.71 29-13.71 16.99.04 28.55 9.58 28.55 28.54Zm-18.15 14.65v-.81h-14.25c-5.91 0-9.27 2.29-9.27 6.73s3.9 7.26 9.54 7.26c7.67 0 13.98-5.38 13.98-13.18ZM1029.65 354.6v15.19a50.33 50.33 0 0 1-12.5 1.61c-16.4 0-26.62-7.93-26.62-25v-27.83h-10.48v-15.32h10.48v-16.81h18.15v16.81h18.82v15.32h-18.82v26.22c0 7.66 4 10.35 12.37 10.35 2.15 0 5.11-.27 8.6-.54ZM1036.91 279.05a11.63 11.63 0 0 1 23.26 0c0 6.32-5.24 11.16-11.69 11.16a11.23 11.23 0 0 1-11.57-11.16Zm2.56 24.2h18.15v66.54h-18.15ZM1068.51 336.45c0-19.49 15.59-34.68 35.62-34.68s35.76 15.32 35.76 34.68-15.89 34.82-35.89 34.82-35.49-15.33-35.49-34.82Zm52.83.14c0-10.49-7.39-18.29-17.21-18.29s-17.2 7.67-17.2 18.29 7.26 18 17.2 18 17.21-7.65 17.21-18ZM1211.82 328.52v41.27h-18v-38.85c0-7.66-5-12.91-12.37-12.91s-12.64 5.25-12.64 12.91v38.85h-18.15v-66.54h16.67v6.05c4.57-4.58 11.3-7.53 19.5-7.53 15.58 0 24.99 10.75 24.99 26.75ZM1281.73 330.27v39.52h-16.67v-6.45c-4.7 5-11.7 8.06-20.3 8.06-14.52 0-23-8.6-23-19.89 0-12.1 9.82-19.36 25.14-19.36h16.67v-3c0-7.26-4.16-11.69-12.37-11.69-7.12 0-12.1 3.36-17.61 9.14l-9.41-11.16c7.8-9.28 17.34-13.71 29-13.71 16.99.04 28.55 9.58 28.55 28.54Zm-18.15 14.65v-.81h-14.25c-5.91 0-9.27 2.29-9.27 6.73s3.9 7.26 9.54 7.26c7.66 0 13.98-5.38 13.98-13.18ZM1295.85 269H1314v100.79h-18.15ZM544.82 427.16h-28.37v-16.4h75v16.4H563v72.33h-18.18ZM660 458.22v41.27h-18v-38.72c0-7.79-5-12.9-12.37-12.9S617 453.11 617 460.77v38.72h-18.13V398.66H617v39.93c4.44-4.44 10.76-7.12 18.29-7.12 15.2 0 24.71 10.75 24.71 26.75ZM735.32 472.33h-46.65c2.15 8.47 9 13.18 18.69 13.18 7.26 0 13.17-2.56 18.55-6.72l7.53 12.36a40.52 40.52 0 0 1-26.62 10c-21.1 0-36.43-15.19-36.43-34.82a34.32 34.32 0 0 1 34.82-34.81c18.68 0 31.32 13.71 31.32 30.91a46.39 46.39 0 0 1-1.21 9.9Zm-46.65-12.77h30.25c-.13-8.47-6.72-13.44-14.38-13.44s-13.85 5.11-15.87 13.44ZM788.16 432.94v16h-4.84c-10.49 0-17.88 5.38-17.88 17.34v33.21h-18.15v-66.55H764v7.93a22.88 22.88 0 0 1 18.28-8.73 19.35 19.35 0 0 1 5.88.8ZM850.54 460v39.52h-16.67V493c-4.71 5-11.7 8.06-20.3 8.06-14.52 0-23-8.6-23-19.89 0-12.1 9.81-19.36 25.14-19.36h16.67v-3c0-7.26-4.17-11.7-12.37-11.7-7.12 0-12.1 3.36-17.61 9.15l-9.4-11.08c7.8-9.28 17.34-13.71 29-13.71 17 0 28.54 9.53 28.54 28.53Zm-18.15 14.65v-.81h-14.25c-5.92 0-9.28 2.29-9.28 6.73s3.9 7.25 9.55 7.25c7.66-.03 13.98-5.4 13.98-13.2ZM935 466.15c0 20-13.45 35-32.27 35-8.2 0-15.19-3-19.89-8.06v30.65h-18.18v-90.8h16.67v8.34c4.57-6.32 12.23-9.81 21.37-9.81 18.82 0 32.3 14.65 32.3 34.68Zm-18.42.13c0-11.29-7.66-18.41-17.21-18.41-8.33 0-16.8 5.51-16.8 18.28s8.33 18.42 16.8 18.42c9.38 0 17.18-6.99 17.18-18.29ZM943.31 408.75a11.25 11.25 0 0 1 11.56-11.3 11.37 11.37 0 0 1 11.7 11.3c0 6.31-5.25 11.15-11.7 11.15a11.22 11.22 0 0 1-11.56-11.15Zm2.55 24.19H964v66.55h-18.14ZM972.62 488.2l9.14-11c5.38 5.52 11.56 9 18.69 9 4.57 0 8.46-1.75 8.46-5.51 0-3.09-2.82-4.3-6.85-6.05l-7.13-3c-11.29-4.57-18.15-9.81-18.15-20.3 0-12.77 10.36-19.89 24.47-19.89 9.68 0 17.88 3.22 23.93 9.94l-9.18 11.18a22 22 0 0 0-14.92-6.32c-4.3 0-7.13 1.48-7.13 4.71 0 2.55 2.15 3.9 7 5.91l6.46 2.69c12 4.84 18.68 9.95 18.68 20.3 0 13.71-11.42 21.24-25.94 21.24-11.8 0-21.62-5.1-27.53-12.9ZM1079.23 484.3v15.19a50.48 50.48 0 0 1-12.51 1.61c-16.4 0-26.61-7.93-26.61-25v-27.83h-10.49v-15.33h10.49v-16.8h18.15v16.8h18.82v15.33h-18.82v26.22c0 7.66 4 10.35 12.37 10.35 2.15 0 5.1-.27 8.6-.54ZM1083 488.2l9.15-11c5.37 5.52 11.56 9 18.68 9 4.57 0 8.47-1.75 8.47-5.51 0-3.09-2.82-4.3-6.85-6.05l-7.13-3c-11.29-4.57-18.15-9.81-18.15-20.3 0-12.77 10.35-19.89 24.47-19.89 9.68 0 17.88 3.22 23.93 9.94l-9.14 11.16a22 22 0 0 0-14.93-6.32c-4.3 0-7.12 1.48-7.12 4.71 0 2.55 2.15 3.9 7 5.91l6.45 2.69c12 4.84 18.69 9.95 18.69 20.3 0 13.71-11.43 21.24-26 21.24-11.8.02-21.61-5.08-27.52-12.88ZM251.81 316.9 217 269.05h-16.54v47.85h-40.15V162.84h60.45c34.32 0 59.53 21 59.53 53 0 18.9-9.11 34.54-24.28 43.88l40.62 57.19ZM200.46 234H221c11.2 0 18.44-7.23 18.44-18.2s-7.24-18-18.44-18h-20.54ZM378.55 160c30.81 0 56.49 15.17 70.5 41.32l-30.58 20.77c-10-16.81-23.34-25.21-40.15-25.21-24.51 0-42 17.27-42 43.18 0 12.84 4 23.11 11.68 31 7.93 7.7 18 11.67 30.34 11.67 16.81 0 30.11-8.4 40.15-25.21l30.58 20.77c-14 26.15-39.69 41.32-70.73 41.32-45.28.7-84-35.25-83.1-79.83-.72-44.03 37.56-80.68 83.31-79.78ZM366.41 382.66H320.2v-36.18h132.58v36.18h-46.22v117.88h-40.15Z" transform="translate(-155.45 -160.02)"/></svg>